<mxfile host="app.diagrams.net" modified="2023-10-23T02:49:56.632Z" agent="Mozilla/5.0 (X11; Linux x86_64; rv:109.0) Gecko/20100101 Firefox/114.0" version="21.6.6" etag="kFxQnwXM0DBFsYQNIRhR" type="github">
  <diagram name="第 1 页" id="sz8gZQzYcYxG5bA9nKMC">
    <mxGraphModel>
      <root>
        <mxCell id="0" />
        <mxCell id="1" parent="0" />
      </root>
    </mxGraphModel>
  </diagram>
</mxfile>
